<mxfile host="app.diagrams.net" modified="2023-12-04T13:44:34.527Z" agent="Mozilla/5.0 (Windows NT 10.0; Win64; x64) AppleWebKit/537.36 (KHTML, like Gecko) Chrome/119.0.0.0 Safari/537.36" version="21.6.6" etag="oOs4UAF74ppTP3N6Uw4P" type="github">
  <diagram name="Page-1" id="9HsmdVxV6zTLNY_qXKqH">
    <mxGraphModel>
      <root>
        <mxCell id="0" />
        <mxCell id="1" parent="0" />
      </root>
    </mxGraphModel>
  </diagram>
</mxfile>
